<?xml version="1.0" encoding="UTF-8"?>
<svg version="1.1" xmlns="http://www.w3.org/2000/svg" width="1024" height="1024">
<path d="M0 0 C337.92 0 675.84 0 1024 0 C1024 337.92 1024 675.84 1024 1024 C686.08 1024 348.16 1024 0 1024 C0 686.08 0 348.16 0 0 Z " fill="#E8E8E8" transform="translate(0,0)"/>
<path d="M0 0 C41.58 0 83.16 0 126 0 C126 21.12 126 42.24 126 64 C133.26 64 140.52 64 148 64 C148 85.12 148 106.24 148 128 C154.93 128 161.86 128 169 128 C169 149.12 169 170.24 169 192 C175.93 192 182.86 192 190 192 C190 234.24 190 276.48 190 320 C204.52 320 219.04 320 234 320 C234 361.58 234 403.16 234 446 C199.02 446 164.04 446 128 446 C128 403.76 128 361.52 128 318 C85.1 318 42.2 318 -2 318 C-2 360.24 -2 402.48 -2 446 C-36.98 446 -71.96 446 -108 446 C-108 404.42 -108 362.84 -108 320 C-93.48 320 -78.96 320 -64 320 C-64 277.76 -64 235.52 -64 192 C-57.07 192 -50.14 192 -43 192 C-43 170.88 -43 149.76 -43 128 C-36.07 128 -29.14 128 -22 128 C-22 106.88 -22 85.76 -22 64 C-14.74 64 -7.48 64 0 64 C0 42.88 0 21.76 0 0 Z " fill="#010101" transform="translate(449,193)"/>
<path d="M0 0 C126.06 0 252.12 0 382 0 C382 41.58 382 83.16 382 126 C255.94 126 129.88 126 0 126 C0 84.42 0 42.84 0 0 Z " fill="#F08E04" transform="translate(321,705)"/>
<path d="M0 0 C14.52 0 29.04 0 44 0 C44 21.12 44 42.24 44 64 C58.19 64 72.38 64 87 64 C87 85.78 87 107.56 87 130 C44.1 130 1.2 130 -43 130 C-43 108.22 -43 86.44 -43 64 C-28.81 64 -14.62 64 0 64 C0 42.88 0 21.76 0 0 Z " fill="#EDEDED" transform="translate(490,319)"/>
<path d="M0 0 C1.17719604 0.00036255 2.35439209 0.0007251 3.56726074 0.00109863 C5.42272522 0.02412048 5.42272522 0.02412048 7.31567383 0.04760742 C9.02140564 0.05213928 9.02140564 0.05213928 10.76159668 0.0567627 C15.01539161 0.07247607 19.26905732 0.11435993 23.52270508 0.15307617 C33.03083008 0.21495117 42.53895508 0.27682617 52.33520508 0.34057617 C52.33520508 19.81057617 52.33520508 39.28057617 52.33520508 59.34057617 C47.56613224 60.93026712 45.310046 61.58930816 40.60522461 61.56762695 C39.50453644 61.56747589 38.40384827 61.56732483 37.26980591 61.56716919 C35.51167068 61.55168533 35.51167068 61.55168533 33.71801758 61.53588867 C32.50572479 61.53305878 31.29343201 61.53022888 30.04440308 61.52731323 C26.18290219 61.51614284 22.32163555 61.49104355 18.46020508 61.46557617 C15.8378126 61.45554233 13.21541648 61.44641719 10.59301758 61.43823242 C4.17366719 61.41621375 -2.24554713 61.38276715 -8.66479492 61.34057617 C-9.72830061 50.07488902 -9.72903242 38.95381383 -9.4777832 27.65039062 C-9.41411571 24.62075568 -9.37321923 21.59130277 -9.33276367 18.5612793 C-9.29378266 16.62961026 -9.25346805 14.69796756 -9.21166992 12.76635742 C-9.20214294 11.86331375 -9.19261597 10.96027008 -9.18280029 10.02986145 C-9.15977844 9.19436264 -9.13675659 8.35886383 -9.11303711 7.49804688 C-9.09891785 6.7652803 -9.08479858 6.03251373 -9.07025146 5.27754211 C-8.00469545 0.18711812 -4.63279732 -0.03014836 0 0 Z " fill="#F08E03" transform="translate(333.664794921875,708.659423828125)"/>
<path d="M0 0 C126.06 0 252.12 0 382 0 C382 41.58 382 83.16 382 126 C255.94 126 129.88 126 0 126 C0 84.42 0 42.84 0 0 Z M131.0625 3.5 C129.89847656 3.5928125 128.73445313 3.685625 127.53515625 3.78125 C126.28025391 3.88953125 126.28025391 3.88953125 125 4 C124.67 5.65 124.34 7.3 124 9 C123.505 6.525 123.505 6.525 123 4 C115.34622001 3.94942209 107.69248287 3.91431816 100.03857422 3.89013672 C97.43308909 3.88005936 94.82761531 3.8663973 92.22216797 3.84912109 C88.48402101 3.82494898 84.74602315 3.8135344 81.0078125 3.8046875 C79.83695099 3.79436493 78.66608948 3.78404236 77.45974731 3.77340698 C76.37877777 3.77325592 75.29780823 3.77310486 74.18408203 3.77294922 C73.22921906 3.768508 72.27435608 3.76406677 71.29055786 3.75949097 C68.80260164 3.77779812 68.80260164 3.77779812 67 6 C66.3574765 8.06874034 66.3574765 8.06874034 66 10 C65.505 7.03 65.505 7.03 65 4 C57.48962286 3.93050665 49.97927904 3.87719222 42.46865368 3.84456348 C38.98118424 3.82890365 35.49393468 3.8076602 32.0065918 3.77368164 C27.99786257 3.7348672 23.98936452 3.7202935 19.98046875 3.70703125 C18.72727341 3.69154739 17.47407806 3.67606354 16.1829071 3.66011047 C15.02193008 3.65988388 13.86095306 3.65965729 12.66479492 3.65942383 C11.64109299 3.65276199 10.61739105 3.64610016 9.56266785 3.63923645 C6.99543778 3.8110556 6.99543778 3.8110556 5.17297363 5.22377014 C3.65171888 7.52740087 3.60353641 9.00543668 3.56762695 11.76025391 C3.54783783 12.73925659 3.52804871 13.71825928 3.50765991 14.72692871 C3.50126495 15.79930786 3.49487 16.87168701 3.48828125 17.9765625 C3.47028473 19.10646606 3.45228821 20.23636963 3.43374634 21.4005127 C3.3785271 25.14197292 3.34513937 28.88327986 3.3125 32.625 C3.27960014 35.21469223 3.24581652 37.80437337 3.21118164 40.39404297 C2.87516284 67.59434188 2.89679837 94.79829748 3 122 C5.43714128 123.21857064 7.0000798 123.12845994 9.7245636 123.13371277 C10.72137146 123.13797775 11.71817932 123.14224274 12.74519348 123.14663696 C13.84288559 123.14618378 14.9405777 123.14573059 16.0715332 123.14526367 C17.22446869 123.14862228 18.37740417 123.1519809 19.5652771 123.15544128 C23.39378931 123.1649751 27.22225789 123.1668957 31.05078125 123.16796875 C33.03376993 123.1703688 35.01675863 123.17277043 36.99974698 123.17542917 C43.23933651 123.18357764 49.47891162 123.18601311 55.71850586 123.18530273 C62.15320893 123.18470238 68.58782804 123.19524481 75.02250987 123.2110464 C80.54700277 123.22412904 86.07146826 123.2294863 91.59597653 123.22884732 C94.89540721 123.22859247 98.19474657 123.23235598 101.49416542 123.24202538 C105.17627579 123.25180454 108.85816947 123.24895512 112.5402832 123.24291992 C113.63190262 123.24853943 114.72352203 123.25415894 115.84822083 123.25994873 C116.85348816 123.25575424 117.85875549 123.25155975 118.89448547 123.24723816 C119.76482579 123.24778293 120.63516611 123.24832769 121.53188038 123.24888897 C124.3475414 122.96495339 126.46749858 122.25252929 129 121 C129.33 120.34 129.66 119.68 130 119 C130.33 119.99 130.66 120.98 131 122 C138.79619588 122.05057624 146.5923497 122.08568114 154.38867188 122.10986328 C157.04265931 122.11994089 159.6966356 122.13360313 162.35058594 122.15087891 C166.15823107 122.17504992 169.96572984 122.18646535 173.7734375 122.1953125 C174.96617279 122.20563507 176.15890808 122.21595764 177.38778687 122.22659302 C179.03927231 122.22681961 179.03927231 122.22681961 180.72412109 122.22705078 C181.69674896 122.231492 182.66937683 122.23593323 183.67147827 122.24050903 C186.19303103 122.22744595 186.19303103 122.22744595 188 120 C188.66 120.66 189.32 121.32 190 122 C193.66371798 123.00274928 197.1516349 123.12646563 200.93603516 123.12939453 C202.69278061 123.13412277 202.69278061 123.13412277 204.48501587 123.13894653 C206.36801895 123.13591019 206.36801895 123.13591019 208.2890625 123.1328125 C210.23212784 123.13424759 210.23212784 123.13424759 212.21444702 123.13571167 C214.9496175 123.13718237 217.68475522 123.13505359 220.41992188 123.13037109 C223.92488512 123.12466285 227.42977197 123.12796368 230.93473244 123.13394356 C234.28201527 123.1384245 237.6292775 123.13528836 240.9765625 123.1328125 C242.23594635 123.13483673 243.4953302 123.13686096 244.7928772 123.13894653 C245.95773651 123.13579437 247.12259583 123.13264221 248.32275391 123.12939453 C249.34913971 123.12859894 250.37552551 123.12780334 251.43301392 123.12698364 C254.12003016 123.1094174 254.12003016 123.1094174 257 122 C257.33 112.76 257.66 103.52 258 94 C258.33 103.24 258.66 112.48 259 122 C262.65329777 122.73065955 265.34902432 123.12420872 268.96711731 123.12025452 C269.94161835 123.12162918 270.91611938 123.12300385 271.92015076 123.12442017 C272.97750931 123.12082489 274.03486786 123.11722961 275.12426758 123.11352539 C276.24665833 123.11367142 277.36904907 123.11381744 278.52545166 123.1139679 C282.23183125 123.11327176 285.93816045 123.10549328 289.64453125 123.09765625 C292.21571322 123.09579101 294.78689555 123.09436761 297.358078 123.09336853 C303.43175941 123.08994173 309.50542005 123.08206183 315.57909364 123.07201904 C322.49564138 123.06083146 329.41218999 123.05534079 336.32874453 123.05032361 C350.55250604 123.0398785 364.77625238 123.02229555 379 123 C379.02312737 114.93347826 379.04091709 106.86697028 379.05181217 98.80042362 C379.05704014 95.05516963 379.06413622 91.30993824 379.07543945 87.56469727 C379.08627141 83.95318313 379.09227749 80.34169079 379.09487724 76.73016167 C379.09673094 75.34939671 379.10035049 73.968633 379.10573006 72.58787727 C379.11294447 70.66024048 379.11340809 68.73258193 379.11352539 66.80493164 C379.115746 65.70572891 379.11796661 64.60652618 379.12025452 63.47401428 C379.28046633 61.0564853 379.28046633 61.0564853 378 60 C377.90634994 58.2507128 377.88255562 56.49763746 377.88647461 54.74584961 C377.88655014 53.62476303 377.88662567 52.50367645 377.88670349 51.34861755 C377.89186478 50.1288472 377.89702606 48.90907684 377.90234375 47.65234375 C377.90446617 45.7899984 377.90446617 45.7899984 377.90663147 43.89002991 C377.91129409 40.58394509 377.92028503 37.27792854 377.93133545 33.97186279 C377.94155173 30.6003885 377.94612955 27.22890717 377.95117188 23.85742188 C377.96222605 17.23826225 377.97898264 10.61913507 378 4 C370.99454201 2.68386265 363.97942163 2.85576241 356.875 2.8671875 C355.46479257 2.86600096 354.05458539 2.86447749 352.64437866 2.86264038 C348.09623277 2.858892 343.54813676 2.86647296 339 2.875 C337.44297287 2.87727059 335.88594568 2.87950848 334.32891846 2.88171387 C324.26479167 2.89769458 314.2008512 2.93549903 304.13685608 2.98884583 C302.08761861 2.99954264 300.03837861 3.00932372 297.98913574 3.0189209 C291.12372268 3.05362931 284.25932694 3.11009669 277.39453125 3.20953369 C275.38842375 3.23641858 273.38221758 3.2567686 271.37597656 3.27044678 C268.63276665 3.29129342 265.89117665 3.33710766 263.1484375 3.390625 C261.95811417 3.39248306 261.95811417 3.39248306 260.7437439 3.39437866 C256.38038899 3.4955815 256.38038899 3.4955815 252.99072266 6.03808594 C252.50031494 7.0092334 252.50031494 7.0092334 252 8 C252 6.68 252 5.36 252 4 C233.19 4 214.38 4 195 4 C194.67 4.99 194.34 5.98 194 7 C193.67 6.01 193.34 5.02 193 4 C187.72052609 3.85498706 182.44098746 3.71270571 177.16137695 3.57275391 C175.37229516 3.52496809 173.58323178 3.47648731 171.79418945 3.42724609 C151.41627217 2.71955797 151.41627217 2.71955797 131.0625 3.5 Z " fill="#E4A341" transform="translate(321,705)"/>
<path d="M0 0 C19.8 0 39.6 0 60 0 C60 19.8 60 39.6 60 60 C40.2 60 20.4 60 0 60 C0 40.2 0 20.4 0 0 Z " fill="#EDEDEC" transform="translate(386,642)"/>
<path d="M0 0 C19.8 0 39.6 0 60 0 C60 19.8 60 39.6 60 60 C40.2 60 20.4 60 0 60 C0 40.2 0 20.4 0 0 Z " fill="#EDEDEC" transform="translate(322,642)"/>
<path d="M0 0 C19.8 0 39.6 0 60 0 C60 19.8 60 39.6 60 60 C40.2 60 20.4 60 0 60 C0 40.2 0 20.4 0 0 Z " fill="#EDEDED" transform="translate(706,578)"/>
<path d="M0 0 C19.8 0 39.6 0 60 0 C60 19.8 60 39.6 60 60 C40.2 60 20.4 60 0 60 C0 40.2 0 20.4 0 0 Z " fill="#ECECEC" transform="translate(770,514)"/>
<path d="M0 0 C19.8 0 39.6 0 60 0 C60 19.8 60 39.6 60 60 C40.2 60 20.4 60 0 60 C0 40.2 0 20.4 0 0 Z " fill="#ECECEC" transform="translate(706,514)"/>
<path d="M0 0 C19.8 0 39.6 0 60 0 C60 19.8 60 39.6 60 60 C40.2 60 20.4 60 0 60 C0 40.2 0 20.4 0 0 Z " fill="#ECECEC" transform="translate(514,514)"/>
<path d="M0 0 C19.8 0 39.6 0 60 0 C60 19.8 60 39.6 60 60 C40.2 60 20.4 60 0 60 C0 40.2 0 20.4 0 0 Z " fill="#ECECEC" transform="translate(450,514)"/>
<path d="M0 0 C19.8 0 39.6 0 60 0 C60 19.8 60 39.6 60 60 C40.2 60 20.4 60 0 60 C0 40.2 0 20.4 0 0 Z " fill="#ECECEC" transform="translate(258,514)"/>
<path d="M0 0 C19.8 0 39.6 0 60 0 C60 19.8 60 39.6 60 60 C40.2 60 20.4 60 0 60 C0 40.2 0 20.4 0 0 Z " fill="#ECECEC" transform="translate(194,514)"/>
<path d="M0 0 C19.8 0 39.6 0 60 0 C60 19.8 60 39.6 60 60 C40.2 60 20.4 60 0 60 C0 40.2 0 20.4 0 0 Z " fill="#ECECEC" transform="translate(130,514)"/>
<path d="M0 0 C19.8 0 39.6 0 60 0 C60 19.8 60 39.6 60 60 C40.2 60 20.4 60 0 60 C0 40.2 0 20.4 0 0 Z " fill="#ECECEC" transform="translate(66,514)"/>
<path d="M0 0 C19.8 0 39.6 0 60 0 C60 19.8 60 39.6 60 60 C40.2 60 20.4 60 0 60 C0 40.2 0 20.4 0 0 Z " fill="#ECECEC" transform="translate(898,450)"/>
<path d="M0 0 C19.8 0 39.6 0 60 0 C60 19.8 60 39.6 60 60 C40.2 60 20.4 60 0 60 C0 40.2 0 20.4 0 0 Z " fill="#ECECEC" transform="translate(834,450)"/>
<path d="M0 0 C19.8 0 39.6 0 60 0 C60 19.8 60 39.6 60 60 C40.2 60 20.4 60 0 60 C0 40.2 0 20.4 0 0 Z " fill="#ECECEC" transform="translate(770,450)"/>
<path d="M0 0 C19.8 0 39.6 0 60 0 C60 19.8 60 39.6 60 60 C40.2 60 20.4 60 0 60 C0 40.2 0 20.4 0 0 Z " fill="#EDEDED" transform="translate(642,450)"/>
<path d="M0 0 C19.8 0 39.6 0 60 0 C60 19.8 60 39.6 60 60 C40.2 60 20.4 60 0 60 C0 40.2 0 20.4 0 0 Z " fill="#ECECEC" transform="translate(322,450)"/>
<path d="M0 0 C19.8 0 39.6 0 60 0 C60 19.8 60 39.6 60 60 C40.2 60 20.4 60 0 60 C0 40.2 0 20.4 0 0 Z " fill="#ECECEC" transform="translate(258,450)"/>
<path d="M0 0 C19.8 0 39.6 0 60 0 C60 19.8 60 39.6 60 60 C40.2 60 20.4 60 0 60 C0 40.2 0 20.4 0 0 Z " fill="#ECECEC" transform="translate(194,450)"/>
<path d="M0 0 C19.8 0 39.6 0 60 0 C60 19.8 60 39.6 60 60 C40.2 60 20.4 60 0 60 C0 40.2 0 20.4 0 0 Z " fill="#ECECEC" transform="translate(130,450)"/>
<path d="M0 0 C19.8 0 39.6 0 60 0 C60 19.8 60 39.6 60 60 C40.2 60 20.4 60 0 60 C0 40.2 0 20.4 0 0 Z " fill="#ECECEC" transform="translate(66,450)"/>
<path d="M0 0 C19.8 0 39.6 0 60 0 C60 19.8 60 39.6 60 60 C40.2 60 20.4 60 0 60 C0 40.2 0 20.4 0 0 Z " fill="#ECECEC" transform="translate(898,386)"/>
<path d="M0 0 C19.8 0 39.6 0 60 0 C60 19.8 60 39.6 60 60 C40.2 60 20.4 60 0 60 C0 40.2 0 20.4 0 0 Z " fill="#ECECEC" transform="translate(834,386)"/>
<path d="M0 0 C19.8 0 39.6 0 60 0 C60 19.8 60 39.6 60 60 C40.2 60 20.4 60 0 60 C0 40.2 0 20.4 0 0 Z " fill="#ECECEC" transform="translate(770,386)"/>
<path d="M0 0 C19.8 0 39.6 0 60 0 C60 19.8 60 39.6 60 60 C40.2 60 20.4 60 0 60 C0 40.2 0 20.4 0 0 Z " fill="#ECECEC" transform="translate(642,386)"/>
<path d="M0 0 C19.8 0 39.6 0 60 0 C60 19.8 60 39.6 60 60 C40.2 60 20.4 60 0 60 C0 40.2 0 20.4 0 0 Z " fill="#ECECEC" transform="translate(450,386)"/>
<path d="M0 0 C19.8 0 39.6 0 60 0 C60 19.8 60 39.6 60 60 C40.2 60 20.4 60 0 60 C0 40.2 0 20.4 0 0 Z " fill="#ECECEC" transform="translate(322,386)"/>
<path d="M0 0 C19.8 0 39.6 0 60 0 C60 19.8 60 39.6 60 60 C40.2 60 20.4 60 0 60 C0 40.2 0 20.4 0 0 Z " fill="#ECECEC" transform="translate(258,386)"/>
<path d="M0 0 C19.8 0 39.6 0 60 0 C60 19.8 60 39.6 60 60 C40.2 60 20.4 60 0 60 C0 40.2 0 20.4 0 0 Z " fill="#ECECEC" transform="translate(194,386)"/>
<path d="M0 0 C19.8 0 39.6 0 60 0 C60 19.8 60 39.6 60 60 C40.2 60 20.4 60 0 60 C0 40.2 0 20.4 0 0 Z " fill="#ECECEC" transform="translate(130,386)"/>
<path d="M0 0 C19.8 0 39.6 0 60 0 C60 19.8 60 39.6 60 60 C40.2 60 20.4 60 0 60 C0 40.2 0 20.4 0 0 Z " fill="#ECECEC" transform="translate(66,386)"/>
<path d="M0 0 C19.8 0 39.6 0 60 0 C60 19.8 60 39.6 60 60 C40.2 60 20.4 60 0 60 C0 40.2 0 20.4 0 0 Z " fill="#ECECEC" transform="translate(898,322)"/>
<path d="M0 0 C19.8 0 39.6 0 60 0 C60 19.8 60 39.6 60 60 C40.2 60 20.4 60 0 60 C0 40.2 0 20.4 0 0 Z " fill="#ECECEC" transform="translate(834,322)"/>
<path d="M0 0 C19.8 0 39.6 0 60 0 C60 19.8 60 39.6 60 60 C40.2 60 20.4 60 0 60 C0 40.2 0 20.4 0 0 Z " fill="#ECECEC" transform="translate(770,322)"/>
<path d="M0 0 C19.8 0 39.6 0 60 0 C60 19.8 60 39.6 60 60 C40.2 60 20.4 60 0 60 C0 40.2 0 20.4 0 0 Z " fill="#ECECEC" transform="translate(706,322)"/>
<path d="M0 0 C19.8 0 39.6 0 60 0 C60 19.8 60 39.6 60 60 C40.2 60 20.4 60 0 60 C0 40.2 0 20.4 0 0 Z " fill="#ECECEC" transform="translate(642,322)"/>
<path d="M0 0 C19.8 0 39.6 0 60 0 C60 19.8 60 39.6 60 60 C40.2 60 20.4 60 0 60 C0 40.2 0 20.4 0 0 Z " fill="#ECECEC" transform="translate(322,322)"/>
<path d="M0 0 C19.8 0 39.6 0 60 0 C60 19.8 60 39.6 60 60 C40.2 60 20.4 60 0 60 C0 40.2 0 20.4 0 0 Z " fill="#ECECEC" transform="translate(258,322)"/>
<path d="M0 0 C19.8 0 39.6 0 60 0 C60 19.8 60 39.6 60 60 C40.2 60 20.4 60 0 60 C0 40.2 0 20.4 0 0 Z " fill="#ECECEC" transform="translate(194,322)"/>
<path d="M0 0 C19.8 0 39.6 0 60 0 C60 19.8 60 39.6 60 60 C40.2 60 20.4 60 0 60 C0 40.2 0 20.4 0 0 Z " fill="#ECECEC" transform="translate(130,322)"/>
<path d="M0 0 C19.8 0 39.6 0 60 0 C60 19.8 60 39.6 60 60 C40.2 60 20.4 60 0 60 C0 40.2 0 20.4 0 0 Z " fill="#ECECEC" transform="translate(66,322)"/>
<path d="M0 0 C19.8 0 39.6 0 60 0 C60 19.8 60 39.6 60 60 C40.2 60 20.4 60 0 60 C0 40.2 0 20.4 0 0 Z " fill="#ECECEC" transform="translate(898,258)"/>
<path d="M0 0 C19.8 0 39.6 0 60 0 C60 19.8 60 39.6 60 60 C40.2 60 20.4 60 0 60 C0 40.2 0 20.4 0 0 Z " fill="#ECECEC" transform="translate(834,258)"/>
<path d="M0 0 C19.8 0 39.6 0 60 0 C60 19.8 60 39.6 60 60 C40.2 60 20.4 60 0 60 C0 40.2 0 20.4 0 0 Z " fill="#ECECEC" transform="translate(770,258)"/>
<path d="M0 0 C19.8 0 39.6 0 60 0 C60 19.8 60 39.6 60 60 C40.2 60 20.4 60 0 60 C0 40.2 0 20.4 0 0 Z " fill="#ECECEC" transform="translate(706,258)"/>
<path d="M0 0 C19.8 0 39.6 0 60 0 C60 19.8 60 39.6 60 60 C40.2 60 20.4 60 0 60 C0 40.2 0 20.4 0 0 Z " fill="#ECECEC" transform="translate(642,258)"/>
<path d="M0 0 C19.8 0 39.6 0 60 0 C60 19.8 60 39.6 60 60 C40.2 60 20.4 60 0 60 C0 40.2 0 20.4 0 0 Z " fill="#ECECEC" transform="translate(322,258)"/>
<path d="M0 0 C19.8 0 39.6 0 60 0 C60 19.8 60 39.6 60 60 C40.2 60 20.4 60 0 60 C0 40.2 0 20.4 0 0 Z " fill="#ECECEC" transform="translate(258,258)"/>
<path d="M0 0 C19.8 0 39.6 0 60 0 C60 19.8 60 39.6 60 60 C40.2 60 20.4 60 0 60 C0 40.2 0 20.4 0 0 Z " fill="#ECECEC" transform="translate(194,258)"/>
<path d="M0 0 C19.8 0 39.6 0 60 0 C60 19.8 60 39.6 60 60 C40.2 60 20.4 60 0 60 C0 40.2 0 20.4 0 0 Z " fill="#ECECEC" transform="translate(130,258)"/>
<path d="M0 0 C19.8 0 39.6 0 60 0 C60 19.8 60 39.6 60 60 C40.2 60 20.4 60 0 60 C0 40.2 0 20.4 0 0 Z " fill="#ECECEC" transform="translate(66,258)"/>
<path d="M0 0 C19.8 0 39.6 0 60 0 C60 19.8 60 39.6 60 60 C40.2 60 20.4 60 0 60 C0 40.2 0 20.4 0 0 Z " fill="#ECECEC" transform="translate(898,194)"/>
<path d="M0 0 C19.8 0 39.6 0 60 0 C60 19.8 60 39.6 60 60 C40.2 60 20.4 60 0 60 C0 40.2 0 20.4 0 0 Z " fill="#ECECEC" transform="translate(834,194)"/>
<path d="M0 0 C19.8 0 39.6 0 60 0 C60 19.8 60 39.6 60 60 C40.2 60 20.4 60 0 60 C0 40.2 0 20.4 0 0 Z " fill="#ECECEC" transform="translate(770,194)"/>
<path d="M0 0 C19.8 0 39.6 0 60 0 C60 19.8 60 39.6 60 60 C40.2 60 20.4 60 0 60 C0 40.2 0 20.4 0 0 Z " fill="#ECECEC" transform="translate(706,194)"/>
<path d="M0 0 C19.8 0 39.6 0 60 0 C60 19.8 60 39.6 60 60 C40.2 60 20.4 60 0 60 C0 40.2 0 20.4 0 0 Z " fill="#ECECEC" transform="translate(642,194)"/>
<path d="M0 0 C19.8 0 39.6 0 60 0 C60 19.8 60 39.6 60 60 C40.2 60 20.4 60 0 60 C0 40.2 0 20.4 0 0 Z " fill="#ECECEC" transform="translate(578,194)"/>
<path d="M0 0 C19.8 0 39.6 0 60 0 C60 19.8 60 39.6 60 60 C40.2 60 20.4 60 0 60 C0 40.2 0 20.4 0 0 Z " fill="#ECECEC" transform="translate(386,194)"/>
<path d="M0 0 C19.8 0 39.6 0 60 0 C60 19.8 60 39.6 60 60 C40.2 60 20.4 60 0 60 C0 40.2 0 20.4 0 0 Z " fill="#ECECEC" transform="translate(322,194)"/>
<path d="M0 0 C19.8 0 39.6 0 60 0 C60 19.8 60 39.6 60 60 C40.2 60 20.4 60 0 60 C0 40.2 0 20.4 0 0 Z " fill="#ECECEC" transform="translate(258,194)"/>
<path d="M0 0 C19.8 0 39.6 0 60 0 C60 19.8 60 39.6 60 60 C40.2 60 20.4 60 0 60 C0 40.2 0 20.4 0 0 Z " fill="#ECECEC" transform="translate(194,194)"/>
<path d="M0 0 C19.8 0 39.6 0 60 0 C60 19.8 60 39.6 60 60 C40.2 60 20.4 60 0 60 C0 40.2 0 20.4 0 0 Z " fill="#ECECEC" transform="translate(130,194)"/>
<path d="M0 0 C19.8 0 39.6 0 60 0 C60 19.8 60 39.6 60 60 C40.2 60 20.4 60 0 60 C0 40.2 0 20.4 0 0 Z " fill="#ECECEC" transform="translate(66,194)"/>
<path d="M0 0 C19.8 0 39.6 0 60 0 C60 19.8 60 39.6 60 60 C40.2 60 20.4 60 0 60 C0 40.2 0 20.4 0 0 Z " fill="#ECECEC" transform="translate(898,130)"/>
<path d="M0 0 C19.8 0 39.6 0 60 0 C60 19.8 60 39.6 60 60 C40.2 60 20.4 60 0 60 C0 40.2 0 20.4 0 0 Z " fill="#ECECEC" transform="translate(834,130)"/>
<path d="M0 0 C19.8 0 39.6 0 60 0 C60 19.8 60 39.6 60 60 C40.2 60 20.4 60 0 60 C0 40.2 0 20.4 0 0 Z " fill="#ECECEC" transform="translate(770,130)"/>
<path d="M0 0 C19.8 0 39.6 0 60 0 C60 19.8 60 39.6 60 60 C40.2 60 20.4 60 0 60 C0 40.2 0 20.4 0 0 Z " fill="#ECECEC" transform="translate(706,130)"/>
<path d="M0 0 C19.8 0 39.6 0 60 0 C60 19.8 60 39.6 60 60 C40.2 60 20.4 60 0 60 C0 40.2 0 20.4 0 0 Z " fill="#ECECEC" transform="translate(642,130)"/>
<path d="M0 0 C19.8 0 39.6 0 60 0 C60 19.8 60 39.6 60 60 C40.2 60 20.4 60 0 60 C0 40.2 0 20.4 0 0 Z " fill="#ECECEC" transform="translate(578,130)"/>
<path d="M0 0 C19.8 0 39.6 0 60 0 C60 19.8 60 39.6 60 60 C40.2 60 20.4 60 0 60 C0 40.2 0 20.4 0 0 Z " fill="#ECECEC" transform="translate(450,130)"/>
<path d="M0 0 C19.8 0 39.6 0 60 0 C60 19.8 60 39.6 60 60 C40.2 60 20.4 60 0 60 C0 40.2 0 20.4 0 0 Z " fill="#ECECEC" transform="translate(386,130)"/>
<path d="M0 0 C19.8 0 39.6 0 60 0 C60 19.8 60 39.6 60 60 C40.2 60 20.4 60 0 60 C0 40.2 0 20.4 0 0 Z " fill="#ECECEC" transform="translate(322,130)"/>
<path d="M0 0 C19.8 0 39.6 0 60 0 C60 19.8 60 39.6 60 60 C40.2 60 20.4 60 0 60 C0 40.2 0 20.4 0 0 Z " fill="#ECECEC" transform="translate(258,130)"/>
<path d="M0 0 C19.8 0 39.6 0 60 0 C60 19.8 60 39.6 60 60 C40.2 60 20.4 60 0 60 C0 40.2 0 20.4 0 0 Z " fill="#ECECEC" transform="translate(194,130)"/>
<path d="M0 0 C19.8 0 39.6 0 60 0 C60 19.8 60 39.6 60 60 C40.2 60 20.4 60 0 60 C0 40.2 0 20.4 0 0 Z " fill="#ECECEC" transform="translate(130,130)"/>
<path d="M0 0 C19.8 0 39.6 0 60 0 C60 19.8 60 39.6 60 60 C40.2 60 20.4 60 0 60 C0 40.2 0 20.4 0 0 Z " fill="#ECECEC" transform="translate(66,130)"/>
<path d="M0 0 C19.8 0 39.6 0 60 0 C60 19.8 60 39.6 60 60 C40.2 60 20.4 60 0 60 C0 40.2 0 20.4 0 0 Z " fill="#ECECEC" transform="translate(898,66)"/>
<path d="M0 0 C19.8 0 39.6 0 60 0 C60 19.8 60 39.6 60 60 C40.2 60 20.4 60 0 60 C0 40.2 0 20.4 0 0 Z " fill="#ECECEC" transform="translate(834,66)"/>
<path d="M0 0 C19.8 0 39.6 0 60 0 C60 19.8 60 39.6 60 60 C40.2 60 20.4 60 0 60 C0 40.2 0 20.4 0 0 Z " fill="#ECECEC" transform="translate(770,66)"/>
<path d="M0 0 C19.8 0 39.6 0 60 0 C60 19.8 60 39.6 60 60 C40.2 60 20.4 60 0 60 C0 40.2 0 20.4 0 0 Z " fill="#ECECEC" transform="translate(706,66)"/>
<path d="M0 0 C19.8 0 39.6 0 60 0 C60 19.8 60 39.6 60 60 C40.2 60 20.4 60 0 60 C0 40.2 0 20.4 0 0 Z " fill="#ECECEC" transform="translate(642,66)"/>
<path d="M0 0 C19.8 0 39.6 0 60 0 C60 19.8 60 39.6 60 60 C40.2 60 20.4 60 0 60 C0 40.2 0 20.4 0 0 Z " fill="#ECECEC" transform="translate(578,66)"/>
<path d="M0 0 C19.8 0 39.6 0 60 0 C60 19.8 60 39.6 60 60 C40.2 60 20.4 60 0 60 C0 40.2 0 20.4 0 0 Z " fill="#ECECEC" transform="translate(514,66)"/>
<path d="M0 0 C19.8 0 39.6 0 60 0 C60 19.8 60 39.6 60 60 C40.2 60 20.4 60 0 60 C0 40.2 0 20.4 0 0 Z " fill="#ECECEC" transform="translate(450,66)"/>
<path d="M0 0 C19.8 0 39.6 0 60 0 C60 19.8 60 39.6 60 60 C40.2 60 20.4 60 0 60 C0 40.2 0 20.4 0 0 Z " fill="#ECECEC" transform="translate(386,66)"/>
<path d="M0 0 C19.8 0 39.6 0 60 0 C60 19.8 60 39.6 60 60 C40.2 60 20.4 60 0 60 C0 40.2 0 20.4 0 0 Z " fill="#ECECEC" transform="translate(322,66)"/>
<path d="M0 0 C19.8 0 39.6 0 60 0 C60 19.8 60 39.6 60 60 C40.2 60 20.4 60 0 60 C0 40.2 0 20.4 0 0 Z " fill="#ECECEC" transform="translate(258,66)"/>
<path d="M0 0 C19.8 0 39.6 0 60 0 C60 19.8 60 39.6 60 60 C40.2 60 20.4 60 0 60 C0 40.2 0 20.4 0 0 Z " fill="#ECECEC" transform="translate(194,66)"/>
<path d="M0 0 C19.8 0 39.6 0 60 0 C60 19.8 60 39.6 60 60 C40.2 60 20.4 60 0 60 C0 40.2 0 20.4 0 0 Z " fill="#ECECEC" transform="translate(130,66)"/>
<path d="M0 0 C19.8 0 39.6 0 60 0 C60 19.8 60 39.6 60 60 C40.2 60 20.4 60 0 60 C0 40.2 0 20.4 0 0 Z " fill="#ECECEC" transform="translate(66,66)"/>
<path d="M0 0 C19.8 0 39.6 0 60 0 C60.020625 9.714375 60.04125 19.42875 60.0625 29.4375 C60.071604 32.50861084 60.08070801 35.57972168 60.09008789 38.74389648 C60.09300679 41.16129513 60.09555541 43.57869426 60.09765625 45.99609375 C60.10277222 47.2648938 60.10788818 48.53369385 60.11315918 49.84094238 C60.11334045 51.6375531 60.11334045 51.6375531 60.11352539 53.47045898 C60.115746 54.51636703 60.11796661 55.56227509 60.12025452 56.63987732 C60 59 60 59 59 60 C57.15881971 60.09381302 55.31402359 60.11743954 53.47045898 60.11352539 C51.67384827 60.11334412 51.67384827 60.11334412 49.84094238 60.11315918 C48.57214233 60.10804321 47.30334229 60.10292725 45.99609375 60.09765625 C44.83726685 60.09664917 43.67843994 60.09564209 42.48449707 60.09460449 C38.13548805 60.08935327 33.78649308 60.07539216 29.4375 60.0625 C14.8659375 60.0315625 14.8659375 60.0315625 0 60 C0 40.2 0 20.4 0 0 Z " fill="#ECECEC" transform="translate(514,130)"/>
<path d="M0 0 C20.46 0.33 40.92 0.66 62 1 C62.061875 9.848125 62.12375 18.69625 62.1875 27.8125 C62.22846802 32.00030151 62.22846802 32.00030151 62.27026367 36.27270508 C62.27902362 38.47997606 62.28666872 40.68725187 62.29296875 42.89453125 C62.30831665 44.04514038 62.32366455 45.19574951 62.33947754 46.38122559 C62.33984009 47.47721069 62.34020264 48.5731958 62.34057617 49.70239258 C62.34723801 50.65503494 62.35389984 51.60767731 62.36076355 52.58918762 C62 55 62 55 60.81555176 56.80981445 C58.31984517 58.44587572 56.58536149 58.3609979 53.6105957 58.34057617 C52.50968094 58.34034958 51.40876617 58.34012299 50.27449036 58.33988953 C49.08691635 58.32440567 47.89934235 58.30892181 46.67578125 58.29296875 C45.45924362 58.28872391 44.24270599 58.28447906 42.98930359 58.28010559 C39.09681229 58.26328851 35.20483529 58.22562959 31.3125 58.1875 C28.67643976 58.17245713 26.04037142 58.15876804 23.40429688 58.14648438 C16.9360219 58.11337499 10.46804769 58.06314505 4 58 C4 56.68 4 55.36 4 54 C3.34 54 2.68 54 2 54 C1.98969254 53.35298126 1.97938507 52.70596252 1.96876526 52.03933716 C1.8608425 45.32380778 1.7462332 38.60841646 1.62768555 31.89306641 C1.58429097 29.38463216 1.5426193 26.87616751 1.50268555 24.36767578 C1.44509243 20.76846132 1.38136657 17.16940058 1.31640625 13.5703125 C1.29969376 12.44319855 1.28298126 11.31608459 1.26576233 10.15481567 C1.24581711 9.11388763 1.22587189 8.07295959 1.20532227 7.00048828 C1.18977798 6.08115509 1.1742337 5.1618219 1.15821838 4.21463013 C1.1389322 1.95924846 1.1389322 1.95924846 0 0 Z " fill="#FCA003" transform="translate(448,769)"/>
<path d="M0 0 C18.81 0 37.62 0 57 0 C57 1.65 57 3.3 57 5 C57.33 5 57.66 5 58 5 C58.07587748 12.08407758 58.12852671 19.16805094 58.16479492 26.25244141 C58.17990945 28.66393957 58.20040153 31.07541014 58.22631836 33.48681641 C58.26258425 36.94700928 58.27969956 40.40683971 58.29296875 43.8671875 C58.30845261 44.95055389 58.32393646 46.03392029 58.33988953 47.15011597 C58.34011612 48.1510025 58.34034271 49.15188904 58.34057617 50.18310547 C58.34723801 51.06690887 58.35389984 51.95071228 58.36076355 52.86129761 C58.24171158 53.5670694 58.12265961 54.27284119 58 55 C54.59317436 57.27121709 53.42202816 57.24468887 49.42700195 57.22705078 C48.28604568 57.22689972 47.14508942 57.22674866 45.96955872 57.22659302 C44.73823715 57.21627045 43.50691559 57.20594788 42.23828125 57.1953125 C40.34688667 57.19106766 40.34688667 57.19106766 38.4172821 57.18673706 C35.06839578 57.17743125 31.71978209 57.15946703 28.37097168 57.1373291 C24.95241653 57.11685386 21.5338332 57.10773176 18.11523438 57.09765625 C11.41008081 57.0755818 4.70505615 57.04209362 -2 57 C-2.05067427 49.52525728 -2.08572275 42.05055881 -2.10986328 34.57568359 C-2.11992616 32.03237248 -2.13357774 29.48907295 -2.15087891 26.94580078 C-2.17511427 23.29196312 -2.18648027 19.63827832 -2.1953125 15.984375 C-2.20563507 14.84570984 -2.21595764 13.70704468 -2.22659302 12.53387451 C-2.22674408 11.47307678 -2.22689514 10.41227905 -2.22705078 9.31933594 C-2.231492 8.38667908 -2.23593323 7.45402222 -2.24050903 6.49310303 C-2 4 -2 4 0 0 Z " fill="#FCA003" transform="translate(516,709)"/>
<path d="M0 0 C-0.33 0.66 -0.66 1.32 -1 2 C-1.08541859 3.67970378 -1.10714661 5.36283022 -1.09765625 7.04467773 C-1.09270142 8.62157631 -1.09270142 8.62157631 -1.08764648 10.23033142 C-1.07934814 11.36990799 -1.0710498 12.50948456 -1.0625 13.68359375 C-1.05871338 14.85003922 -1.05492676 16.01648468 -1.05102539 17.21827698 C-1.03461842 22.22539468 -1.00650008 27.23243202 -0.97949219 32.23950195 C-0.96146435 35.88752875 -0.94933293 39.53554246 -0.9375 43.18359375 C-0.92920166 44.32114609 -0.92090332 45.45869843 -0.91235352 46.63072205 C-0.90739868 48.21234886 -0.90739868 48.21234886 -0.90234375 49.82592773 C-0.89710693 50.7547728 -0.89187012 51.68361786 -0.88647461 52.64060974 C-1 55 -1 55 -2 58 C-9.4564542 58.02536111 -16.91289727 58.04287159 -24.36938477 58.05493164 C-26.90584733 58.05995948 -29.44230699 58.06678262 -31.97875977 58.07543945 C-35.62517004 58.08757274 -39.27154197 58.09324384 -42.91796875 58.09765625 C-44.05147263 58.10281754 -45.1849765 58.10797882 -46.35282898 58.11329651 C-47.94391228 58.11340981 -47.94391228 58.11340981 -49.56713867 58.11352539 C-50.96279305 58.11685631 -50.96279305 58.11685631 -52.38664246 58.12025452 C-55.01814708 57.99916496 -57.43509391 57.58518198 -60 57 C-60.02505615 56.05495605 -60.0501123 55.10991211 -60.07592773 54.13623047 C-60.17265584 50.50905693 -60.27214151 46.8819627 -60.37231445 43.25488281 C-60.41469211 41.7077016 -60.45639595 40.16050174 -60.49731445 38.61328125 C-60.8386802 25.73409932 -61.37998171 12.86866165 -62 0 C-54.35928097 -0.15384492 -46.71846997 -0.30202597 -39.07750225 -0.4429636 C-35.52955293 -0.50858382 -31.98166325 -0.5761594 -28.43383789 -0.64819336 C-24.3557274 -0.73090855 -20.27750095 -0.80513725 -16.19921875 -0.87890625 C-14.92414963 -0.90594131 -13.64908051 -0.93297638 -12.33537292 -0.96083069 C-11.15437515 -0.98092697 -9.97337738 -1.00102325 -8.7565918 -1.02172852 C-7.71512497 -1.04171402 -6.67365814 -1.06169952 -5.60063171 -1.08229065 C-3 -1 -3 -1 0 0 Z " fill="#FCA003" transform="translate(640,770)"/>
<path d="M0 0 C0.95708359 0.00222061 1.91416718 0.00444122 2.9002533 0.00672913 C3.98129837 0.00680466 5.06234344 0.00688019 6.17614746 0.00695801 C7.94018166 0.01469994 7.94018166 0.01469994 9.73985291 0.02259827 C10.93702438 0.02401321 12.13419586 0.02542816 13.36764526 0.02688599 C17.20918732 0.03250472 21.05067208 0.04506041 24.89219666 0.05775452 C27.48920102 0.0627671 30.0862063 0.06733043 32.68321228 0.07142639 C39.06539344 0.08248024 45.44754096 0.0992366 51.82969666 0.12025452 C52.32469666 2.59525452 52.32469666 2.59525452 52.82969666 5.12025452 C53.15969666 5.12025452 53.48969666 5.12025452 53.82969666 5.12025452 C53.82969666 21.95025452 53.82969666 38.78025452 53.82969666 56.12025452 C51.2144788 57.42786344 49.29856265 57.24022999 46.370224 57.23377991 C45.2291922 57.23370438 44.0881604 57.23362885 42.91255188 57.23355103 C41.67606903 57.22838974 40.43958618 57.22322845 39.16563416 57.21791077 C37.90328949 57.21649582 36.64094482 57.21508087 35.34034729 57.21362305 C31.98331367 57.20896529 28.62634765 57.19997859 25.26933289 57.18891907 C21.84414759 57.17869222 18.41895532 57.17412269 14.99375916 57.16908264 C8.27238623 57.1580369 1.55104535 57.14128645 -5.17030334 57.12025452 C-5.50030334 57.78025452 -5.83030334 58.44025452 -6.17030334 59.12025452 C-7.14458399 56.1974126 -7.27889593 54.41245888 -7.23963928 51.37684631 C-7.22922607 50.41542221 -7.21881287 49.45399811 -7.20808411 48.46343994 C-7.19046021 47.42593094 -7.1728363 46.38842194 -7.15467834 45.31947327 C-7.13818237 44.25034195 -7.1216864 43.18121063 -7.10469055 42.0796814 C-7.06717757 39.81589253 -7.02662956 37.55215225 -6.98329163 35.28846741 C-6.92074323 31.83206264 -6.87918585 28.37580208 -6.83827209 24.91908264 C-6.79920633 22.7191894 -6.75888274 20.51931807 -6.71717834 18.31947327 C-6.70765137 17.28803696 -6.69812439 16.25660065 -6.68830872 15.19390869 C-6.33635078 0.35109138 -6.33635078 0.35109138 0 0 Z " fill="#FCA003" transform="translate(392.17030334472656,708.8797454833984)"/>
<path d="M0 0 C9.384375 -0.020625 18.76875 -0.04125 28.4375 -0.0625 C31.40419678 -0.071604 34.37089355 -0.08070801 37.42749023 -0.09008789 C39.76285761 -0.0930068 42.09822549 -0.09555542 44.43359375 -0.09765625 C45.65921021 -0.10277222 46.88482666 -0.10788818 48.14758301 -0.11315918 C49.30471802 -0.11328003 50.46185303 -0.11340088 51.65405273 -0.11352539 C52.664431 -0.115746 53.67480927 -0.11796661 54.71580505 -0.12025452 C57 0 57 0 58 1 C58.09370624 2.77991924 58.11744271 4.56356739 58.11352539 6.34594727 C58.11344986 7.4870546 58.11337433 8.62816193 58.11329651 9.80384827 C58.10813522 11.0454924 58.10297394 12.28713654 58.09765625 13.56640625 C58.0962413 14.83016586 58.09482635 16.09392548 58.09336853 17.39598083 C58.08870582 20.76124889 58.0797148 24.1264499 58.06866455 27.49169922 C58.05844846 30.9234967 58.05387049 34.35530109 58.04882812 37.78710938 C58.0377738 44.52475824 58.0210171 51.26237525 58 58 C50.73305527 58.02314782 43.46611846 58.04092756 36.19914436 58.05181217 C32.82496974 58.05703565 29.45082029 58.06412361 26.07666016 58.07543945 C22.19953741 58.08752436 18.3224506 58.09323263 14.4453125 58.09765625 C13.23070343 58.10281754 12.01609436 58.10797882 10.76467896 58.11329651 C9.08316238 58.11340981 9.08316238 58.11340981 7.36767578 58.11352539 C6.37728302 58.115746 5.38689026 58.11796661 4.3664856 58.12025452 C2 58 2 58 0 57 C0 38.19 0 19.38 0 0 Z " fill="#FCA003" transform="translate(324,770)"/>
<path d="M0 0 C0.83347961 -0.00095673 1.66695923 -0.00191345 2.5256958 -0.00289917 C4.26664303 -0.00357267 6.00759291 -0.00177709 7.74853516 0.00244141 C10.39882044 0.00782916 13.04893841 0.00245403 15.69921875 -0.00390625 C17.4036462 -0.00324585 19.10807355 -0.00196548 20.8125 0 C21.5949408 -0.00202423 22.37738159 -0.00404846 23.18353271 -0.00613403 C24.30069672 -0.00140579 24.30069672 -0.00140579 25.44042969 0.00341797 C26.4065921 0.00461136 26.4065921 0.00461136 27.39227295 0.00582886 C30.49291992 0.18094887 33.56624944 0.69361599 36.640625 1.1328125 C36.640625 19.6128125 36.640625 38.0928125 36.640625 57.1328125 C33.58717915 58.15062778 31.53778708 58.25378491 28.34301758 58.24633789 C27.24703247 58.24621704 26.15104736 58.24609619 25.02185059 58.24597168 C23.87124146 58.24085571 22.72063232 58.23573975 21.53515625 58.23046875 C20.47663452 58.22946167 19.41811279 58.22845459 18.32751465 58.22741699 C14.36937376 58.22218079 10.41124831 58.20821955 6.453125 58.1953125 C-2.395 58.1746875 -11.243125 58.1540625 -20.359375 58.1328125 C-20.359375 39.3228125 -20.359375 20.5128125 -20.359375 1.1328125 C-13.46928721 0.50644088 -6.87207944 -0.01796447 0 0 Z " fill="#FCA003" transform="translate(662.359375,707.8671875)"/>
<path d="M0 0 C0.65710344 -0.00241583 1.31420689 -0.00483166 1.99122256 -0.0073207 C4.2082881 -0.01298312 6.42506747 -0.00427153 8.64212036 0.00431824 C10.2411351 0.00326504 11.84014947 0.00134682 13.43916225 -0.00136566 C17.84384942 -0.00620556 22.24843744 0.00162592 26.65311265 0.01161981 C31.39547531 0.02034765 36.13783444 0.01792154 40.88020325 0.01705933 C50.16751158 0.01733504 59.45477379 0.02899897 68.74206764 0.04465407 C76.28157659 0.05713126 83.8210782 0.06503291 91.3605957 0.06999207 C186.1031007 0.13420872 280.84366415 0.63395323 375.58401489 1.24723816 C375.58401489 1.90723816 375.58401489 2.56723816 375.58401489 3.24723816 C376.24401489 3.24723816 376.90401489 3.24723816 377.58401489 3.24723816 C377.65405411 19.49338031 377.70697803 35.73947359 377.73945141 51.98573017 C377.75492922 59.5289241 377.77603609 67.07202431 377.81033325 74.61515808 C377.84020776 81.18872377 377.85958325 87.76222159 377.86628038 94.33585328 C377.87019598 97.81750685 377.87941686 101.29896622 377.90120506 104.78055763 C377.92531427 108.6644267 377.92598614 112.54810469 377.92459106 116.43205261 C377.94076981 118.16913734 377.94076981 118.16913734 377.95727539 119.9413147 C377.9531514 120.99720795 377.9490274 122.0531012 377.94477844 123.14099121 C377.94754382 124.06001882 377.9503092 124.97904642 377.95315838 125.92592335 C377.51259217 128.69637143 376.79737785 129.57715597 374.58401489 131.24723816 C372.65489197 131.64596558 372.65489197 131.64596558 370.39968872 131.67961121 C369.52626831 131.69940536 368.6528479 131.71919952 367.75296021 131.73959351 C366.28681274 131.74917839 366.28681274 131.74917839 364.79104614 131.75895691 C363.72748901 131.77690811 362.66393188 131.79485931 361.56814575 131.81335449 C357.84430604 131.87004673 354.12064463 131.90271626 350.39651489 131.93473816 C349.03984808 131.95076806 347.683189 131.96746398 346.32653809 131.98478699 C311.62012855 132.42491261 276.9077393 132.27511709 242.19934082 132.23881531 C200.9631158 132.1962329 159.73067421 132.31251632 118.49561304 132.63607848 C113.61205893 132.6743023 108.72849071 132.70995717 103.84490967 132.74455261 C97.31381642 132.79103545 90.78278897 132.84340806 84.25177574 132.90017891 C81.85091086 132.92045993 79.45003237 132.9391951 77.04914284 132.95631218 C73.78417478 132.98013442 70.5193238 133.01012281 67.25442505 133.04191589 C65.81313343 133.05054909 65.81313343 133.05054909 64.3427248 133.05935669 C63.03887223 133.07403992 63.03887223 133.07403992 61.7086792 133.08901978 C60.95497858 133.09547233 60.20127796 133.10192488 59.42473793 133.10857296 C57.48756615 133.13764525 57.48756615 133.13764525 55.58401489 134.24723816 C55.58401489 133.58723816 55.58401489 132.92723816 55.58401489 132.24723816 C54.78443863 132.26198685 53.98486237 132.27673553 53.16105652 132.29193115 C45.64149748 132.42973837 38.12187616 132.56271336 30.60213566 132.69020176 C26.73577136 132.75592353 22.86945927 132.82354192 19.00320435 132.89543152 C15.27504986 132.96468452 11.54684061 133.0290382 7.81854057 133.0899334 C6.39309025 133.11408883 4.96766919 133.14003736 3.54228401 133.16777229 C1.55245439 133.2061897 -0.43750403 133.23775447 -2.42745972 133.26896667 C-4.12955849 133.29894493 -4.12955849 133.29894493 -5.86604309 133.32952881 C-8.41598511 133.24723816 -8.41598511 133.24723816 -9.41598511 132.24723816 C-9.5100799 130.22229584 -9.53341632 128.19403946 -9.5295105 126.16691589 C-9.52943497 124.86564255 -9.52935944 123.5643692 -9.52928162 122.22366333 C-9.5241742 120.79271914 -9.51895819 119.36177534 -9.51364136 117.93083191 C-9.51177714 116.47494556 -9.51035325 115.01905859 -9.50935364 113.56317139 C-9.50552876 109.72444437 -9.49569875 105.88575497 -9.48464966 102.04704285 C-9.47443488 98.13266 -9.46985588 94.2182711 -9.46481323 90.30387878 C-9.45407644 82.61831473 -9.4370004 74.93278171 -9.41598511 67.24723816 C-10.07598511 67.24723816 -10.73598511 67.24723816 -11.41598511 67.24723816 C-11.08598511 66.25723816 -10.75598511 65.26723816 -10.41598511 64.24723816 C-10.31387402 62.24907334 -10.27020723 60.24773059 -10.25827026 58.24699402 C-10.24800812 57.01238937 -10.23774597 55.77778473 -10.22717285 54.50576782 C-10.22373493 53.84684477 -10.22029701 53.18792171 -10.21675491 52.5090313 C-10.20495358 50.44564126 -10.18550045 48.38245937 -10.16363525 46.31915283 C-10.10204169 40.4536985 -10.04788087 34.58826894 -10.01461792 28.72257996 C-9.99371661 25.13333883 -9.95845807 21.544483 -9.91386032 17.9554615 C-9.89967115 16.5867369 -9.89097131 15.2179442 -9.88780594 13.8491497 C-9.88291801 11.93871299 -9.85818747 10.02835788 -9.83248901 8.11808777 C-9.82440216 7.03015427 -9.81631531 5.94222076 -9.8079834 4.82131958 C-9.67862396 3.97187271 -9.54926453 3.12242584 -9.41598511 2.24723816 C-5.82701678 -0.14540739 -4.26451191 -0.00197715 0 0 Z M-6.41598511 3.24723816 C-6.41598511 44.82723816 -6.41598511 86.40723816 -6.41598511 129.24723816 C119.64401489 129.24723816 245.70401489 129.24723816 375.58401489 129.24723816 C375.58401489 87.66723816 375.58401489 46.08723816 375.58401489 3.24723816 C249.52401489 3.24723816 123.46401489 3.24723816 -6.41598511 3.24723816 Z " fill="#EAD0AD" transform="translate(327.4159851074219,701.7527618408203)"/>
<path d="M0 0 C0 20.79 0 41.58 0 63 C-0.33 62.34 -0.66 61.68 -1 61 C-13.87 61 -26.74 61 -40 61 C-40 41.2 -40 21.4 -40 1 C-33.585625 0.835 -27.17125 0.67 -20.5625 0.5 C-18.53552979 0.44779297 -16.50855957 0.39558594 -14.42016602 0.34179688 C-12.82307969 0.30077109 -11.22599312 0.25975481 -9.62890625 0.21875 C-8.79194214 0.1971582 -7.95497803 0.17556641 -7.09265137 0.15332031 C-1.1140718 0 -1.1140718 0 0 0 Z " fill="#EDEDED" transform="translate(426,257)"/>
<path d="M0 0 C19.8 0.495 19.8 0.495 40 1 C40 20.8 40 40.6 40 61 C26.8 61 13.6 61 0 61 C0 40.87 0 20.74 0 0 Z " fill="#EDEDED" transform="translate(598,257)"/>
<path d="M0 0 C13.86 0 27.72 0 42 0 C42 20.79 42 41.58 42 63 C35.73 62.67 29.46 62.34 23 62 C23 42.2 23 22.4 23 2 C21.68 2 20.36 2 19 2 C19 21.8 19 41.6 19 62 C12.73 62 6.46 62 0 62 C0 41.54 0 21.08 0 0 Z " fill="#EDEDED" transform="translate(491,320)"/>
<path d="M0 0 C6.27 0.33 12.54 0.66 19 1 C19 20.8 19 40.6 19 61 C13.06 61 7.12 61 1 61 C1 62.32 1 63.64 1 65 C6.94 65 12.88 65 19 65 C19.33 84.8 19.66 104.6 20 125 C13.4 125.33 6.8 125.66 0 126 C0 84.42 0 42.84 0 0 Z " fill="#EDEDED" transform="translate(683,513)"/>
<path d="M0 0 C6.27 0 12.54 0 19 0 C19 41.58 19 83.16 19 126 C12.73 125.67 6.46 125.34 0 125 C0 105.2 0 85.4 0 65 C5.94 65 11.88 65 18 65 C18 63.68 18 62.36 18 61 C12.06 61 6.12 61 0 61 C0 40.87 0 20.74 0 0 Z " fill="#EDEDED" transform="translate(322,513)"/>
<path d="M0 0 C14.52 0 29.04 0 44 0 C44 21.12 44 42.24 44 64 C58.19 64 72.38 64 87 64 C87 85.78 87 107.56 87 130 C44.1 130 1.2 130 -43 130 C-43 108.22 -43 86.44 -43 64 C-28.81 64 -14.62 64 0 64 C0 42.88 0 21.76 0 0 Z M1 1 C1 21.46 1 41.92 1 63 C7.27 63 13.54 63 20 63 C20 43.2 20 23.4 20 3 C21.32 3 22.64 3 24 3 C24 22.8 24 42.6 24 63 C30.27 63.33 36.54 63.66 43 64 C43 43.21 43 22.42 43 1 C29.14 1 15.28 1 1 1 Z M-40 67 C-40 86.8 -40 106.6 -40 127 C-20.2 127 -0.4 127 20 127 C20 107.2 20 87.4 20 67 C0.2 67 -19.6 67 -40 67 Z M-42 65 C-42 86.12 -42 107.24 -42 129 C0.24 129 42.48 129 86 129 C86 107.88 86 86.76 86 65 C83.36 65 80.72 65 78 65 C78 65.66 78 66.32 78 67 C60.18 67 42.36 67 24 67 C24 87.13 24 107.26 24 128 C2.55 128 -18.9 128 -41 128 C-41 107.21 -41 86.42 -41 65 C-41.33 65 -41.66 65 -42 65 Z " fill="#BCBCBC" transform="translate(490,319)"/>
<path d="M0 0 C42.9 0 85.8 0 130 0 C130 42.24 130 84.48 130 128 C129.67 128 129.34 128 129 128 C129 86.09 129 44.18 129 1 C87.42 1 45.84 1 3 1 C3 21.46 3 41.92 3 63 C22.8 63 42.6 63 63 63 C63 42.87 63 22.74 63 2 C64.32 2 65.64 2 67 2 C67 64.37 67 126.74 67 191 C65.68 191 64.36 191 63 191 C62.79084086 182.14626283 62.60546733 173.29211259 62.4375 164.4375 C62.42476673 163.76691685 62.41203346 163.09633369 62.39891434 162.40542984 C61.97712135 139.82269322 62.02438417 117.27000812 62.4375 94.6875 C62.45031384 93.98637463 62.46312767 93.28524925 62.4763298 92.56287766 C62.63362278 84.04154716 62.80779184 75.52061597 63 67 C62.25053604 67.00222061 61.50107208 67.00444122 60.72889709 67.00672913 C53.68017709 67.02673179 46.63146685 67.041974 39.58272648 67.05181217 C35.9585404 67.05704002 32.3343777 67.06413587 28.71020508 67.07543945 C25.21540025 67.08627184 21.72061796 67.09227758 18.22579765 67.09487724 C16.23760611 67.09763551 14.24942369 67.10544688 12.26124573 67.11329651 C11.06007614 67.11337204 9.85890656 67.11344757 8.62133789 67.11352539 C7.02582848 67.11685631 7.02582848 67.11685631 5.39808655 67.12025452 C3 67 3 67 2 66 C1.67 86.46 1.34 106.92 1 128 C0.67 128 0.34 128 0 128 C0 85.76 0 43.52 0 0 Z " fill="#D3D3D3" transform="translate(447,511)"/>
<path d="M0 0 C0.99 0 1.98 0 3 0 C3 18.48 3 36.96 3 56 C4.485 56.495 4.485 56.495 6 57 C5.67 57.66 5.34 58.32 5 59 C4.34 59 3.68 59 3 59 C3 79.13 3 99.26 3 120 C22.47 120 41.94 120 62 120 C62 121.32 62 122.64 62 124 C42.53 124 23.06 124 3 124 C3 143.8 3 163.6 3 184 C3.66 184.33 4.32 184.66 5 185 C4.34 185.99 3.68 186.98 3 188 C2.34 188 1.68 188 1 188 C1 208.46 1 228.92 1 250 C15.19 250 29.38 250 44 250 C44 250.33 44 250.66 44 251 C29.48 251 14.96 251 0 251 C0 208.76 0 166.52 0 123 C-6.93 123 -13.86 123 -21 123 C-21 101.88 -21 80.76 -21 59 C-20.67 59 -20.34 59 -20 59 C-19.67 79.13 -19.34 99.26 -19 120 C-13.06 120 -7.12 120 -1 120 C-1 99.87 -1 79.74 -1 59 C-0.34 59 0.32 59 1 59 C1 58.34 1 57.68 1 57 C0.34 57 -0.32 57 -1 57 C-1.02312916 49.71578452 -1.04091801 42.4315769 -1.05181217 35.14733219 C-1.05703975 31.76528187 -1.06413511 28.3832566 -1.07543945 25.0012207 C-1.08834267 21.11670223 -1.09322924 17.23219403 -1.09765625 13.34765625 C-1.10281754 12.12788589 -1.10797882 10.90811554 -1.11329651 9.65138245 C-1.11340981 7.96975258 -1.11340981 7.96975258 -1.11352539 6.25415039 C-1.115746 5.26153702 -1.11796661 4.26892365 -1.12025452 3.24623108 C-1 1 -1 1 0 0 Z " fill="#CECECE" transform="translate(639,262)"/>
<path d="M0 0 C6.27 0.33 12.54 0.66 19 1 C19 20.8 19 40.6 19 61 C13.06 61 7.12 61 1 61 C0.67 61.66 0.34 62.32 0 63 C0 42.21 0 21.42 0 0 Z " fill="#EDEDED" transform="translate(619,321)"/>
<path d="M0 0 C0 20.79 0 41.58 0 63 C-0.33 62.34 -0.66 61.68 -1 61 C-6.94 61 -12.88 61 -19 61 C-19 41.2 -19 21.4 -19 1 C-1 0 -1 0 0 0 Z " fill="#EDEDED" transform="translate(405,321)"/>
<path d="M0 0 C125.4 0 250.8 0 380 0 C380 40.92 380 81.84 380 124 C254.6 124 129.2 124 0 124 C0 83.08 0 42.16 0 0 Z M1 3 C0.6989582 5.18758137 0.6989582 5.18758137 0.75276184 7.7514801 C0.74856735 8.7540686 0.74437286 9.7566571 0.74005127 10.78962708 C0.74567078 11.89360336 0.75129028 12.99757965 0.75708008 14.13500977 C0.75518173 15.29437042 0.75328339 16.45373108 0.75132751 17.64822388 C0.74761047 21.49601923 0.7583366 25.34362755 0.76953125 29.19140625 C0.77072255 31.85416444 0.77122719 34.51691466 0.7709198 37.17967224 C0.77185686 42.76588284 0.78054706 48.35203917 0.79418945 53.93823242 C0.8099231 60.40480399 0.81518732 66.87131614 0.8144539 73.33790547 C0.81384443 79.54972573 0.81894199 85.76152656 0.82724571 91.97334099 C0.83043913 94.62125468 0.83240135 97.26917014 0.83313942 99.91708565 C0.83529541 103.60954951 0.84402329 107.30193714 0.85473633 110.99438477 C0.85428314 112.10038528 0.85382996 113.2063858 0.85336304 114.34590149 C0.85762802 115.34567017 0.86189301 116.34543884 0.86628723 117.37550354 C0.86796308 118.24953103 0.86963892 119.12355852 0.87136555 120.02407169 C0.78195367 122.00184606 0.78195367 122.00184606 2 123 C4.00163007 123.09781474 6.00677803 123.12371251 8.01079655 123.12304783 C9.98364332 123.1260344 9.98364332 123.1260344 11.99634558 123.12908131 C13.47510804 123.12622771 14.95387033 123.1232821 16.43263245 123.12025452 C17.98854542 123.12069008 19.54445832 123.12156472 21.10037082 123.12284368 C25.39651408 123.12509153 29.69263265 123.12106342 33.98877275 123.11606562 C38.6138836 123.11176544 43.23899294 123.11320724 47.86410522 123.1139679 C55.88427119 123.11449341 63.90442905 123.11134379 71.92459297 123.10573006 C83.52054432 123.09761871 95.11649173 123.09500021 106.71244561 123.09374207 C125.52403823 123.09155097 144.33562653 123.08488933 163.1472168 123.07543945 C181.42586241 123.06626682 199.70450685 123.05918526 217.9831543 123.05493164 C219.10898891 123.05466892 220.23482352 123.05440619 221.39477433 123.05413551 C227.04249855 123.05283051 232.69022278 123.0515668 238.33794701 123.05032361 C285.22530185 123.0399492 332.11264869 123.02150993 379 123 C379 82.74 379 42.48 379 1 C331.13386415 0.95594496 283.26774734 0.91900289 235.40159703 0.89786934 C229.75617533 0.8953678 224.11075367 0.89277916 218.46533203 0.89013672 C217.3413855 0.8896121 216.21743896 0.88908748 215.05943345 0.88854696 C196.83810635 0.87983396 178.61679182 0.86405908 160.39547218 0.84569441 C141.71183828 0.82702022 123.02821098 0.81588855 104.34456813 0.81182301 C92.80701234 0.80907279 81.26949204 0.80037288 69.73194717 0.78416707 C61.83034788 0.77363078 53.92876707 0.77039172 46.02716126 0.77299725 C41.4619384 0.77428379 36.89677777 0.77225141 32.33156586 0.76158905 C28.15810747 0.75191232 23.98475363 0.75132844 19.81129061 0.75820221 C18.29578516 0.75905274 16.7802734 0.75646854 15.26478054 0.75023364 C13.21594439 0.74228982 11.16706914 0.74769406 9.11822701 0.75390434 C7.97678769 0.7531449 6.83534838 0.75238546 5.65932 0.75160301 C2.84540663 0.72907319 2.84540663 0.72907319 1 3 Z " fill="#DD9A35" transform="translate(322,706)"/>
<path d="M0 0 C42.9 0 85.8 0 130 0 C130 42.24 130 84.48 130 128 C129.67 128 129.34 128 129 128 C129 86.09 129 44.18 129 1 C87.42 1 45.84 1 3 1 C3 21.46 3 41.92 3 63 C22.8 63 42.6 63 63 63 C63.33 63.66 63.66 64.32 64 65 C63.67 65.66 63.34 66.32 63 67 C55.19424805 67.02312792 47.38850405 67.04091738 39.58272648 67.05181217 C35.9585404 67.05704002 32.3343777 67.06413587 28.71020508 67.07543945 C25.21540025 67.08627184 21.72061796 67.09227758 18.22579765 67.09487724 C16.23760611 67.09763551 14.24942369 67.10544688 12.26124573 67.11329651 C11.06007614 67.11337204 9.85890656 67.11344757 8.62133789 67.11352539 C7.02582848 67.11685631 7.02582848 67.11685631 5.39808655 67.12025452 C3 67 3 67 2 66 C1.67 86.46 1.34 106.92 1 128 C0.67 128 0.34 128 0 128 C0 85.76 0 43.52 0 0 Z " fill="#B0B0B0" transform="translate(447,511)"/>
<path d="M0 0 C0 42.9 0 85.8 0 130 C62.37 130 124.74 130 189 130 C189 130.33 189 130.66 189 131 C188.35762705 131.00423194 187.7152541 131.00846388 187.0534153 131.01282406 C171.43879912 131.11603062 155.8242315 131.22465326 140.20969582 131.33933926 C132.65869328 131.39466877 125.10768603 131.44815032 117.55664062 131.49731445 C110.97682974 131.54015963 104.3970536 131.58643845 97.81729639 131.63687855 C94.33185884 131.66347682 90.84642818 131.68832981 87.36095047 131.70907402 C83.47447361 131.73226905 79.58807864 131.76312846 75.70166016 131.79467773 C74.54000839 131.8004332 73.37835663 131.80618866 72.1815033 131.81211853 C70.59972542 131.82680176 70.59972542 131.82680176 68.98599243 131.84178162 C68.06604303 131.84823417 67.14609364 131.85468672 66.19826698 131.8613348 C63.95641084 131.85928684 63.95641084 131.85928684 62 133 C62 132.34 62 131.68 62 131 C61.20042374 131.01474869 60.40084747 131.02949738 59.57704163 131.04469299 C52.05748259 131.18250021 44.53786127 131.3154752 37.01812077 131.4429636 C33.15175646 131.50868537 29.28544438 131.57630377 25.41918945 131.64819336 C21.69103497 131.71744636 17.96282572 131.78180004 14.23452568 131.84269524 C12.80907535 131.86685067 11.38365429 131.8927992 9.95826912 131.92053413 C7.96843949 131.95895154 5.97848108 131.99051632 3.98852539 132.02172852 C2.28642662 132.05170677 2.28642662 132.05170677 0.54994202 132.08229065 C-2 132 -2 132 -3 131 C-3.09409479 128.97505769 -3.11743122 126.9468013 -3.11352539 124.91967773 C-3.11344986 123.61840439 -3.11337433 122.31713104 -3.11329651 120.97642517 C-3.10818909 119.54548098 -3.10297308 118.11453718 -3.09765625 116.68359375 C-3.09579203 115.2277074 -3.09436815 113.77182043 -3.09336853 112.31593323 C-3.08954365 108.47720621 -3.07971364 104.63851681 -3.06866455 100.79980469 C-3.05844978 96.88542184 -3.05387077 92.97103294 -3.04882812 89.05664062 C-3.03809134 81.37107657 -3.02101529 73.68554355 -3 66 C-3.66 66 -4.32 66 -5 66 C-4.67 65.01 -4.34 64.02 -4 63 C-3.88293767 60.99158335 -3.82324033 58.97964011 -3.79467773 56.96801758 C-3.77473251 55.72695755 -3.75478729 54.48589752 -3.73423767 53.20722961 C-3.71725473 51.8529981 -3.70037587 50.49876527 -3.68359375 49.14453125 C-3.66301772 47.75875741 -3.64202108 46.37298975 -3.62062073 44.98722839 C-3.56546699 41.34259047 -3.51602826 37.69789654 -3.46777344 34.05316162 C-3.41750944 30.3329165 -3.36184896 26.61275257 -3.30664062 22.89257812 C-3.19914101 15.59512087 -3.09767793 8.29759603 -3 1 C-1 0 -1 0 0 0 Z " fill="#E3D2BB" transform="translate(321,703)"/>
<path d="M0 0 C63.36 0 126.72 0 192 0 C192 21.45 192 42.9 192 65 C192.66 65 193.32 65 194 65 C194 65.66 194 66.32 194 67 C193.34 67 192.68 67 192 67 C192.00444122 67.78482758 192.00888245 68.56965515 192.01345825 69.37826538 C192.05348917 76.76513958 192.08396099 84.15196138 192.10362434 91.53891563 C192.11407321 95.33686312 192.12825236 99.13472118 192.15087891 102.93261719 C192.17256821 106.59601346 192.18456031 110.25932357 192.18975449 113.92277908 C192.19345731 115.32226544 192.20068777 116.72174695 192.21146011 118.12119675 C192.22592225 120.07733331 192.22681647 122.03355609 192.22705078 123.98974609 C192.231492 125.1044931 192.23593323 126.21924011 192.24050903 127.36776733 C192 130 192 130 190 132 C187.4057312 132.24050903 187.4057312 132.24050903 184.08154297 132.22705078 C182.84040741 132.22689972 181.59927185 132.22674866 180.32052612 132.22659302 C178.9610783 132.216379 177.6016321 132.205947 176.2421875 132.1953125 C174.85499271 132.19158284 173.46779529 132.18873565 172.08059692 132.18673706 C168.42759949 132.17909684 164.77476083 132.15944516 161.12182617 132.1373291 C157.39504138 132.11687896 153.66823096 132.10773713 149.94140625 132.09765625 C142.62753175 132.07619951 135.31378811 132.04205903 128 132 C128 131.67 128 131.34 128 131 C148.46 130.67 168.92 130.34 190 130 C190.495 67.135 190.495 67.135 191 3 C190.34 3 189.68 3 189 3 C189 2.34 189 1.68 189 1 C126.63 1 64.26 1 0 1 C0 0.67 0 0.34 0 0 Z " fill="#DED4C5" transform="translate(514,702)"/>
<path d="M0 0 C0.33 0 0.66 0 1 0 C1 20.79 1 41.58 1 63 C10.4875 62.835 19.975 62.67 29.75 62.5 C61.84004064 61.97522621 93.90351489 61.92265907 126 62 C126 42.2 126 22.4 126 2 C124.02 2 122.04 2 120 2 C120 1.34 120 0.68 120 0 C122.64 0 125.28 0 128 0 C128 21.12 128 42.24 128 64 C85.76 64 43.52 64 0 64 C0 42.88 0 21.76 0 0 Z " fill="#E0E0E0" transform="translate(448,384)"/>
<path d="M0 0 C34.98 0 69.96 0 106 0 C106 0.33 106 0.66 106 1 C92.47 1 78.94 1 65 1 C65 21.46 65 41.92 65 63 C63.68 63 62.36 63 61 63 C61 42.54 61 22.08 61 1 C40.87 1 20.74 1 0 1 C0 0.67 0 0.34 0 0 Z " fill="#CACACA" transform="translate(577,639)"/>
<path d="M0 0 C34.98 0 69.96 0 106 0 C106 0.33 106 0.66 106 1 C85.87 1.33 65.74 1.66 45 2 C45 22.13 45 42.26 45 63 C43.68 63 42.36 63 41 63 C41 42.54 41 22.08 41 1 C27.47 1 13.94 1 0 1 C0 0.67 0 0.34 0 0 Z " fill="#CBCBCA" transform="translate(341,639)"/>
<path d="M0 0 C1.61882584 0.00666183 1.61882584 0.00666183 3.27035522 0.01345825 C5.10202744 0.01368484 5.10202744 0.01368484 6.97070312 0.01391602 C8.30805625 0.02413001 9.64540772 0.03456201 10.98275757 0.04519653 C12.34753208 0.04892623 13.71230926 0.05177341 15.0770874 0.05377197 C18.6709023 0.0614119 22.2645558 0.08106331 25.85830688 0.10317993 C29.52476823 0.12363072 33.19125564 0.13277204 36.85775757 0.14285278 C44.05314369 0.164309 51.24839677 0.19844911 58.44369507 0.24050903 C58.44369507 0.90050903 58.44369507 1.56050903 58.44369507 2.24050903 C57.36041428 2.25263931 57.36041428 2.25263931 56.25524902 2.26501465 C49.45686497 2.34288196 42.65865993 2.43014857 35.86053658 2.52803612 C32.36534741 2.57803077 28.87018893 2.62436017 25.37484741 2.66238403 C21.358538 2.70623448 17.3426002 2.76589863 13.32650757 2.82644653 C12.06815094 2.83799774 10.80979431 2.84954895 9.51330566 2.8614502 C8.35225311 2.88131989 7.19120056 2.90118958 5.9949646 2.92166138 C4.45608078 2.94164688 4.45608078 2.94164688 2.8861084 2.96203613 C0.26503104 3.00420443 0.26503104 3.00420443 -1.55630493 5.24050903 C-1.88815838 7.7881015 -1.88815838 7.7881015 -1.87515259 10.79177856 C-1.89502228 11.95283112 -1.91489197 13.11388367 -1.93536377 14.31011963 C-1.94691498 15.56847626 -1.95846619 16.82683289 -1.97036743 18.12332153 C-1.98973358 19.40786224 -2.00909973 20.69240295 -2.02905273 22.01586914 C-2.08044434 25.43198439 -2.12003207 28.84813911 -2.15719604 32.26443481 C-2.19719191 35.75004903 -2.24830431 39.23549806 -2.29849243 42.72097778 C-2.39533468 49.56070093 -2.47971273 56.40052999 -2.55630493 63.24050903 C-3.21630493 63.24050903 -3.87630493 63.24050903 -4.55630493 63.24050903 C-4.60259439 55.32165326 -4.63815675 47.40285377 -4.65992928 39.48389626 C-4.67037767 35.80701553 -4.68455595 32.1302272 -4.70718384 28.45339966 C-4.72887484 24.90671248 -4.7408656 21.36011431 -4.74605942 17.81336594 C-4.74976194 16.45853651 -4.75699182 15.10371209 -4.76776505 13.74892044 C-4.78222941 11.85505146 -4.78312142 9.96109339 -4.78335571 8.06716919 C-4.79001755 6.44834335 -4.79001755 6.44834335 -4.79681396 4.79681396 C-4.46114778 1.22910958 -3.56770438 0.33566619 0 0 Z " fill="#E68F16" transform="translate(327.5563049316406,706.7594909667969)"/>
<path d="M0 0 C4 3 4 3 4.48101807 5.06913757 C4.47213562 5.8618959 4.46325317 6.65465424 4.45410156 7.47143555 C4.45379944 8.37214279 4.45349731 9.27285004 4.45318604 10.20085144 C4.43254089 11.16968765 4.41189575 12.13852386 4.390625 13.13671875 C4.38496521 14.13129593 4.37930542 15.12587311 4.37347412 16.15058899 C4.3510672 19.33004711 4.30086205 22.508382 4.25 25.6875 C4.22994062 27.84178061 4.21168887 29.99607887 4.1953125 32.15039062 C4.15118852 37.43397758 4.08423379 42.71690855 4 48 C2.68 48 1.36 48 0 48 C0 32.16 0 16.32 0 0 Z " fill="#D6D6D6" transform="translate(958,976)"/>
<path d="M0 0 C15.18 0 30.36 0 46 0 C46 1.32 46 2.64 46 4 C31.48 4 16.96 4 2 4 C1.34 2.68 0.68 1.36 0 0 Z " fill="#D6D6D6" transform="translate(978,958)"/>
<path d="M0 0 C21.12 0 42.24 0 64 0 C64 0.66 64 1.32 64 2 C62.68 2 61.36 2 60 2 C60 3.65 60 5.3 60 7 C59.34 7.33 58.68 7.66 58 8 C58 6.02 58 4.04 58 2 C56.90365234 2.16298584 55.80730469 2.32597168 54.67773438 2.49389648 C49.49931866 3.13793247 44.36791127 3.12553351 39.15625 3.09765625 C38.14655151 3.0962413 37.13685303 3.09482635 36.09655762 3.09336853 C32.89767389 3.08780781 29.69886228 3.0752627 26.5 3.0625 C24.32031352 3.05747992 22.14062593 3.0529179 19.9609375 3.04882812 C14.64060074 3.03785128 9.32030552 3.02115268 4 3 C3.01 4.98 2.02 6.96 1 9 C0.67 9 0.34 9 0 9 C0 6.03 0 3.06 0 0 Z " fill="#F2A01A" transform="translate(386,707)"/>
<path d="M0 0 C0.33 0 0.66 0 1 0 C1.75183797 16.66372699 2.40113928 33.33010535 3 50 C6.15723211 50.9223761 9.03543439 51.15059057 12.31933594 51.20532227 C13.38013367 51.22526749 14.4409314 51.24521271 15.53387451 51.26576233 C17.24187225 51.29083107 17.24187225 51.29083107 18.984375 51.31640625 C20.15510559 51.33718735 21.32583618 51.35796844 22.53204346 51.37937927 C26.27130269 51.44475628 30.01063205 51.50370491 33.75 51.5625 C36.2851635 51.60569647 38.82031991 51.64931112 41.35546875 51.69335938 C47.5702384 51.80042559 53.78507778 51.9022141 60 52 C60 52.33 60 52.66 60 53 C40.2 53 20.4 53 0 53 C0 35.51 0 18.02 0 0 Z " fill="#F49F16" transform="translate(578,776)"/>
<path d="M0 0 C21.12 0 42.24 0 64 0 C64 0.33 64 0.66 64 1 C62.85701195 1.0154612 62.85701195 1.0154612 61.69093323 1.03123474 C54.5244026 1.1290441 47.35796173 1.2315344 40.19157505 1.33933926 C36.5068981 1.39460165 32.82221327 1.44802679 29.13745117 1.49731445 C25.58422159 1.54490932 22.03109125 1.59725007 18.47797966 1.65294075 C17.11957189 1.6733865 15.76113688 1.69209585 14.40268135 1.70907402 C12.50610295 1.73306877 10.60961201 1.76370332 8.71313477 1.79467773 C7.09097801 1.81799416 7.09097801 1.81799416 5.43605042 1.84178162 C3.05248949 1.72758019 3.05248949 1.72758019 2 3 C1.87649342 4.90160112 1.82206557 6.8077239 1.79467773 8.71313477 C1.77473251 9.9343251 1.75478729 11.15551544 1.73423767 12.41371155 C1.71725209 13.75627513 1.70037333 15.09884007 1.68359375 16.44140625 C1.66303053 17.80761861 1.64203423 19.17382451 1.62062073 20.5400238 C1.56533465 24.14194524 1.51595437 27.74392471 1.46777344 31.34594727 C1.41760597 35.01909572 1.36189515 38.69215955 1.30664062 42.36523438 C1.19897918 49.57675132 1.09755213 56.78833847 1 64 C0.67 64 0.34 64 0 64 C0 42.88 0 21.76 0 0 Z " fill="#D49031" transform="translate(322,706)"/>
<path d="M0 0 C22.77 0 45.54 0 69 0 C69 0.66 69 1.32 69 2 C67.38967896 1.99129883 67.38967896 1.99129883 65.74682617 1.98242188 C51.93000214 1.93248166 38.12547152 2.1972221 24.3125 2.5 C22.03841535 2.54836061 19.76432682 2.59653877 17.49023438 2.64453125 C11.99344314 2.76092444 6.49670362 2.8795434 1 3 C0.67 2.01 0.34 1.02 0 0 Z " fill="#E59017" transform="translate(573,707)"/>
<path d="M0 0 C0 0.99 0 1.98 0 3 C-22.44 3 -44.88 3 -68 3 C-67.67 2.34 -67.34 1.68 -67 1 C-66.22992111 1.00222061 -65.45984222 1.00444122 -64.66642761 1.00672913 C-57.41230341 1.02675881 -50.1581926 1.04198783 -42.90404797 1.05181217 C-39.17454538 1.05703273 -35.44506562 1.0641154 -31.71557617 1.07543945 C-28.11702055 1.08629767 -24.5184869 1.09228308 -20.91991615 1.09487724 C-19.54638638 1.09672619 -18.17285782 1.10033666 -16.79933739 1.10573006 C-14.87689764 1.11297928 -12.95443583 1.11340839 -11.03198242 1.11352539 C-9.38984016 1.11685631 -9.38984016 1.11685631 -7.71452332 1.12025452 C-4.967429 0.99855709 -2.7167333 0 0 0 Z " fill="#E4901C" transform="translate(450,826)"/>
<path d="M0 0 C2.475 0.495 2.475 0.495 5 1 C4.67 1.66 4.34 2.32 4 3 C3.92616036 4.92056899 3.91655315 6.84375123 3.9375 8.765625 C3.94587891 9.95647705 3.95425781 11.1473291 3.96289062 12.37426758 C3.97513672 13.65325928 3.98738281 14.93225098 4 16.25 C4.06900086 28.86696414 3.72634583 41.40568206 3 54 C2.67 54 2.34 54 2 54 C1.98969254 53.35298126 1.97938507 52.70596252 1.96876526 52.03933716 C1.8608425 45.32380778 1.7462332 38.60841646 1.62768555 31.89306641 C1.58429097 29.38463216 1.5426193 26.87616751 1.50268555 24.36767578 C1.44509243 20.76846132 1.38136657 17.16940058 1.31640625 13.5703125 C1.29969376 12.44319855 1.28298126 11.31608459 1.26576233 10.15481567 C1.24581711 9.11388763 1.22587189 8.07295959 1.20532227 7.00048828 C1.18977798 6.08115509 1.1742337 5.1618219 1.15821838 4.21463013 C1.1389322 1.95924846 1.1389322 1.95924846 0 0 Z " fill="#F39B0E" transform="translate(448,769)"/>
<path d="M0 0 C-1 2 -1 2 -3 3 C-3 2.34 -3 1.68 -3 1 C-3.680625 1.165 -4.36125 1.33 -5.0625 1.5 C-8.4164822 2.07089059 -11.60389805 2.06659023 -15 2 C-14.67 1.34 -14.34 0.68 -14 0 C-11.6015625 -0.44921875 -11.6015625 -0.44921875 -8.625 -0.6875 C-7.15933594 -0.81705078 -7.15933594 -0.81705078 -5.6640625 -0.94921875 C-3 -1 -3 -1 0 0 Z " fill="#F69F11" transform="translate(640,770)"/>
<path d="M0 0 C1.65 0 3.3 0 5 0 C5 1.32 5 2.64 5 4 C3.35 4 1.7 4 0 4 C0 2.68 0 1.36 0 0 Z " fill="#DCDCDC" transform="translate(249,574)"/>
</svg>
